<mxfile host="app.diagrams.net" modified="2024-05-09T11:40:59.052Z" agent="Mozilla/5.0 (Windows NT 10.0; Win64; x64) AppleWebKit/537.36 (KHTML, like Gecko) Chrome/124.0.0.0 Safari/537.36 Edg/124.0.0.0" etag="9Imri-zXiWYsI3KRaxpi" version="21.2.7" type="device">
  <diagram name="Page-1" id="w89mWXftQqzs_slQ3TD_">
    <mxGraphModel dx="1002" dy="977" grid="0" gridSize="10" guides="1" tooltips="1" connect="1" arrows="1" fold="1" page="0" pageScale="1" pageWidth="850" pageHeight="1100" math="0" shadow="0">
      <root>
        <mxCell id="0" />
        <mxCell id="1" parent="0" />
        <mxCell id="DQ-xzplQvbak_wzepPbo-2" value="" style="rounded=0;whiteSpace=wrap;html=1;" vertex="1" parent="1">
          <mxGeometry x="45" y="240" width="575" height="140" as="geometry" />
        </mxCell>
        <mxCell id="DQ-xzplQvbak_wzepPbo-3" value="GPIO" style="rounded=0;whiteSpace=wrap;html=1;" vertex="1" parent="1">
          <mxGeometry x="100" y="300" width="120" height="60" as="geometry" />
        </mxCell>
        <mxCell id="DQ-xzplQvbak_wzepPbo-4" value="Drivers" style="text;html=1;strokeColor=none;fillColor=none;align=center;verticalAlign=middle;whiteSpace=wrap;rounded=0;" vertex="1" parent="1">
          <mxGeometry x="50" y="250" width="60" height="30" as="geometry" />
        </mxCell>
        <mxCell id="DQ-xzplQvbak_wzepPbo-5" value="TIMER" style="rounded=0;whiteSpace=wrap;html=1;" vertex="1" parent="1">
          <mxGeometry x="280" y="300" width="120" height="60" as="geometry" />
        </mxCell>
        <mxCell id="DQ-xzplQvbak_wzepPbo-6" value="PWM" style="rounded=0;whiteSpace=wrap;html=1;" vertex="1" parent="1">
          <mxGeometry x="460" y="300" width="120" height="60" as="geometry" />
        </mxCell>
        <mxCell id="DQ-xzplQvbak_wzepPbo-8" value="" style="shape=flexArrow;endArrow=classic;startArrow=classic;html=1;rounded=0;exitX=0.5;exitY=0;exitDx=0;exitDy=0;" edge="1" parent="1" source="DQ-xzplQvbak_wzepPbo-2" target="DQ-xzplQvbak_wzepPbo-9">
          <mxGeometry width="100" height="100" relative="1" as="geometry">
            <mxPoint x="370" y="170" as="sourcePoint" />
            <mxPoint x="335" y="160" as="targetPoint" />
          </mxGeometry>
        </mxCell>
        <mxCell id="DQ-xzplQvbak_wzepPbo-9" value="" style="rounded=0;whiteSpace=wrap;html=1;" vertex="1" parent="1">
          <mxGeometry x="38.75" y="10" width="590" height="160" as="geometry" />
        </mxCell>
        <mxCell id="DQ-xzplQvbak_wzepPbo-10" value="Interface" style="text;html=1;strokeColor=none;fillColor=none;align=center;verticalAlign=middle;whiteSpace=wrap;rounded=0;" vertex="1" parent="1">
          <mxGeometry x="50" y="13" width="60" height="30" as="geometry" />
        </mxCell>
        <mxCell id="DQ-xzplQvbak_wzepPbo-11" value="GPIO_INTERFACE" style="rounded=0;whiteSpace=wrap;html=1;" vertex="1" parent="1">
          <mxGeometry x="90" y="57" width="120" height="60" as="geometry" />
        </mxCell>
        <mxCell id="DQ-xzplQvbak_wzepPbo-12" value="UART_INTERFACE" style="rounded=0;whiteSpace=wrap;html=1;" vertex="1" parent="1">
          <mxGeometry x="272.5" y="57" width="120" height="60" as="geometry" />
        </mxCell>
        <mxCell id="DQ-xzplQvbak_wzepPbo-13" value="CAPTURE_TIMER&lt;br&gt;INTERFACE" style="rounded=0;whiteSpace=wrap;html=1;" vertex="1" parent="1">
          <mxGeometry x="460" y="60" width="120" height="60" as="geometry" />
        </mxCell>
        <mxCell id="DQ-xzplQvbak_wzepPbo-14" value="" style="rounded=0;whiteSpace=wrap;html=1;" vertex="1" parent="1">
          <mxGeometry x="37.5" y="-170" width="592.5" height="120" as="geometry" />
        </mxCell>
        <mxCell id="DQ-xzplQvbak_wzepPbo-15" value="Application" style="text;html=1;strokeColor=none;fillColor=none;align=center;verticalAlign=middle;whiteSpace=wrap;rounded=0;" vertex="1" parent="1">
          <mxGeometry x="50" y="-160" width="60" height="30" as="geometry" />
        </mxCell>
        <mxCell id="DQ-xzplQvbak_wzepPbo-16" value="Distance Measurement" style="rounded=0;whiteSpace=wrap;html=1;" vertex="1" parent="1">
          <mxGeometry x="80" y="-120" width="120" height="60" as="geometry" />
        </mxCell>
        <mxCell id="DQ-xzplQvbak_wzepPbo-17" value="Custom Implementation" style="rounded=0;whiteSpace=wrap;html=1;" vertex="1" parent="1">
          <mxGeometry x="460" y="-120" width="120" height="60" as="geometry" />
        </mxCell>
        <mxCell id="DQ-xzplQvbak_wzepPbo-18" value="Distance Measurement" style="rounded=0;whiteSpace=wrap;html=1;" vertex="1" parent="1">
          <mxGeometry x="272.5" y="-120" width="120" height="60" as="geometry" />
        </mxCell>
        <mxCell id="DQ-xzplQvbak_wzepPbo-19" value="" style="shape=flexArrow;endArrow=classic;startArrow=classic;html=1;rounded=0;exitX=0.5;exitY=0;exitDx=0;exitDy=0;entryX=0.5;entryY=1;entryDx=0;entryDy=0;" edge="1" parent="1" source="DQ-xzplQvbak_wzepPbo-9" target="DQ-xzplQvbak_wzepPbo-14">
          <mxGeometry width="100" height="100" relative="1" as="geometry">
            <mxPoint x="374" y="155" as="sourcePoint" />
            <mxPoint x="474" y="55" as="targetPoint" />
          </mxGeometry>
        </mxCell>
      </root>
    </mxGraphModel>
  </diagram>
</mxfile>
